<?xml version="1.0" encoding="UTF-8"?>
<svg version="1.1" xmlns="http://www.w3.org/2000/svg" width="500" height="500">
<path d="M0 0 C165 0 330 0 500 0 C500 165 500 330 500 500 C335 500 170 500 0 500 C0 335 0 170 0 0 Z " fill="#FEFEFE" transform="translate(0,0)"/>
<path d="M0 0 C0.95604126 -0.00852997 1.91208252 -0.01705994 2.89709473 -0.02584839 C3.93927155 -0.02494202 4.98144836 -0.02403564 6.0552063 -0.02310181 C7.15805969 -0.02981903 8.26091309 -0.03653625 9.39718628 -0.04345703 C13.04772429 -0.06247537 16.69807884 -0.06636316 20.34866333 -0.06851196 C22.88448157 -0.07493709 25.42029906 -0.08166523 27.95611572 -0.08868408 C33.27399717 -0.10066637 38.59181015 -0.10444951 43.90969849 -0.10317993 C50.04915585 -0.10197876 56.18826153 -0.12307715 62.32762992 -0.15466726 C68.24150238 -0.18400869 74.15526778 -0.19115503 80.06921768 -0.18996048 C82.58183351 -0.19232154 85.09445191 -0.20117335 87.60702133 -0.21662521 C91.12129676 -0.23621387 94.63466638 -0.2304743 98.1489563 -0.21841431 C99.18708466 -0.22965332 100.22521301 -0.24089233 101.2947998 -0.25247192 C108.85277652 -0.18654185 112.39633302 1.7595737 118.07595825 6.78353882 C121.55497943 11.24337612 120.8480734 16.61672242 120.71975708 22.00961304 C120.70914497 23.69487595 120.70914497 23.69487595 120.69831848 25.41418457 C120.6704039 28.99095158 120.6076665 32.5661343 120.54397583 36.14242554 C120.51888936 38.57209038 120.49607681 41.00177984 120.47561646 43.43148804 C120.42058675 49.37733806 120.33698823 55.3222686 120.23147583 61.26742554 C111.85706916 55.03801105 111.85706916 55.03801105 108.12600708 51.90805054 C107.45247192 51.34988647 106.77893677 50.79172241 106.08499146 50.21664429 C104.7097055 49.07166937 103.33736199 47.923152 101.96780396 46.77133179 C97.62087734 43.18166573 94.06450969 40.771076 88.41897583 39.76742554 C83.67334951 40.51183751 80.86311964 43.27848202 77.23147583 46.26742554 C76.24147583 46.92742554 75.25147583 47.58742554 74.23147583 48.26742554 C73.73518677 47.79691772 73.23889771 47.32640991 72.72756958 46.84164429 C65.56356499 40.27577291 59.9088195 37.68479669 50.09085083 37.99008179 C42.62249318 38.71447167 37.12912797 42.818236 32.23147583 48.26742554 C27.98996308 54.57314116 28.33197878 63.0120484 29.23147583 70.26742554 C30.41830976 73.42724407 32.03866973 75.72331716 34.23147583 78.26742554 C35.05712036 79.27482788 35.05712036 79.27482788 35.89944458 80.30258179 C37.31173919 81.98995516 38.75125968 83.63969644 40.23147583 85.26742554 C39.47350708 85.97705444 39.47350708 85.97705444 38.70022583 86.70101929 C35.22756424 90.2356927 32.72670029 92.83679837 32.60647583 97.95492554 C32.86560233 104.39775259 37.26656515 108.62237309 41.48147583 113.07992554 C42.46380264 114.13670067 43.44557275 115.19399355 44.42678833 116.25180054 C44.90406372 116.76420288 45.38133911 117.27660522 45.87307739 117.80453491 C47.72140885 119.79504571 49.54765762 121.8034487 51.35647583 123.82992554 C51.89530396 124.4293396 52.43413208 125.02875366 52.98928833 125.64633179 C54.23147583 127.26742554 54.23147583 127.26742554 55.23147583 130.26742554 C47.54680944 130.38368253 39.86223515 130.47232371 32.17688751 130.5264864 C28.60752626 130.55249281 25.03877014 130.58772282 21.46975708 130.6446228 C18.02024966 130.69926838 14.5713213 130.72891331 11.12141418 130.74181175 C9.176014 130.75543859 7.23084423 130.79442002 5.28579712 130.83390808 C-1.08938011 130.83591336 -5.84550639 130.52680836 -11.21444702 126.9299469 C-16.3075969 121.4813947 -16.21867414 115.74170738 -16.22018433 108.70736694 C-16.23186646 107.65620193 -16.24354858 106.60503693 -16.25558472 105.52201843 C-16.28912273 102.0542484 -16.2999023 98.58690588 -16.30758667 95.11898804 C-16.31976984 92.70292003 -16.33225594 90.28685352 -16.34503174 87.87078857 C-16.36749591 82.80863049 -16.37706072 77.74662284 -16.37936401 72.68441772 C-16.3846489 66.20545071 -16.43599897 59.72773838 -16.49888039 53.24910927 C-16.53978673 48.25957331 -16.54900652 43.27033969 -16.54948044 38.28065109 C-16.55485926 35.89245664 -16.57170041 33.50425891 -16.60033035 31.11623001 C-16.63708459 27.7719909 -16.62933118 24.43060185 -16.61080933 21.08627319 C-16.63126312 20.10523117 -16.65171692 19.12418915 -16.67279053 18.11341858 C-16.57594194 11.73367517 -15.07924678 8.44364807 -10.66078758 3.83238792 C-7.16391556 0.94036287 -4.52574559 0.01829351 0 0 Z " fill="#E61781" transform="translate(197.76852416992188,136.73257446289063)"/>
<path d="M0 0 C4.38901505 2.37006813 6.98276786 5.09572751 10 9 C9.58637207 9.40839111 9.17274414 9.81678223 8.74658203 10.23754883 C6.87008967 12.0932264 4.99751551 13.95280994 3.125 15.8125 C2.47402344 16.45509766 1.82304687 17.09769531 1.15234375 17.75976562 C0.52714844 18.38173828 -0.09804687 19.00371094 -0.7421875 19.64453125 C-1.3182373 20.21534424 -1.89428711 20.78615723 -2.48779297 21.37426758 C-4.20400998 23.13210168 -4.20400998 23.13210168 -6 26 C-9.82622743 24.4411666 -12.25147379 22.04566418 -15 19 C-16.48350698 14.54947906 -16.67885885 10.71711356 -14.9375 6.3125 C-11.02326907 1.64067599 -6.19461851 -1.05440315 0 0 Z " fill="#E61A82" transform="translate(254,186)"/>
<path d="M0 0 C1.9375 1.0625 1.9375 1.0625 3 3 C2.55555556 9.44444444 2.55555556 9.44444444 1 11 C-4.8410596 11.37086093 -4.8410596 11.37086093 -7 11 C-9.15502531 7.76746204 -9.46856135 6.74849077 -9 3 C-6.73529086 -0.64869805 -4.03159541 -0.50394943 0 0 Z " fill="#FEF7FA" transform="translate(207,154)"/>
</svg>
